<svg xmlns="http://www.w3.org/2000/svg" x="0px" y="0px"
width="20" height="20"
viewBox="0 0 172 172"
style=" fill:#000000;"><g fill="none" fill-rule="nonzero" stroke="none" stroke-width="1" stroke-linecap="butt" stroke-linejoin="miter" stroke-miterlimit="10" stroke-dasharray="" stroke-dashoffset="0" font-family="none" font-weight="none" font-size="none" text-anchor="none" style="mix-blend-mode: normal"><path d="M0,172v-172h172v172z" fill="none"></path><g fill="#ffffff"><path d="M73.45833,164.83333c-4.93783,0 -8.95833,-4.01692 -8.95833,-8.95833v-62.70833l-15.94583,0.01075c-4.89842,0 -8.91892,-3.9775 -8.96192,-8.87233l-0.10392,-10.76075c-0.0215,-2.41158 0.89583,-4.67983 2.59433,-6.38908c1.69133,-1.71283 3.95242,-2.65525 6.364,-2.65525h16.05333v-16.125c0,-24.17317 12.33383,-37.48883 34.72608,-37.48883c8.858,0 16.59083,0.62708 16.6625,0.63425c3.45792,0.30817 6.05942,3.15333 6.05942,6.61842v16.37583c0,3.66217 -2.98133,6.6435 -6.6435,6.6435h-10.42033c-4.36092,0 -7.912,3.5475 -7.912,7.912l-0.20067,15.42983h15.90283c2.55492,0 4.99158,1.0965 6.69008,3.00283c1.6985,1.90633 2.50475,4.45408 2.20733,6.99108l-1.25058,10.75c-0.52317,4.51858 -4.35017,7.92275 -8.89383,7.92275h-14.67733v62.70833c0,4.94142 -4.0205,8.95833 -8.95833,8.95833z"></path></g></g></svg>