<svg xmlns="http://www.w3.org/2000/svg" x="0px" y="0px"
width="20" height="20"
viewBox="0 0 172 172"
style=" fill:#000000;"><g fill="none" fill-rule="nonzero" stroke="none" stroke-width="1" stroke-linecap="butt" stroke-linejoin="miter" stroke-miterlimit="10" stroke-dasharray="" stroke-dashoffset="0" font-family="none" font-weight="none" font-size="none" text-anchor="none" style="mix-blend-mode: normal"><path d="M0,172v-172h172v172z" fill="none"></path><g fill="#ffffff"><path d="M57.32214,17.2c-22.12493,0 -40.12214,18.01386 -40.12214,40.14453v57.33333c0,22.12493 18.01386,40.12214 40.14453,40.12214h57.33333c22.12493,0 40.12214,-18.01386 40.12214,-40.14453v-57.33333c0,-22.12493 -18.01386,-40.12214 -40.14453,-40.12214zM126.13333,40.13333c3.1648,0 5.73333,2.56853 5.73333,5.73333c0,3.1648 -2.56853,5.73333 -5.73333,5.73333c-3.1648,0 -5.73333,-2.56853 -5.73333,-5.73333c0,-3.1648 2.56853,-5.73333 5.73333,-5.73333zM86,51.6c18.9716,0 34.4,15.4284 34.4,34.4c0,18.9716 -15.4284,34.4 -34.4,34.4c-18.9716,0 -34.4,-15.4284 -34.4,-34.4c0,-18.9716 15.4284,-34.4 34.4,-34.4zM86,63.06667c-12.66573,0 -22.93333,10.2676 -22.93333,22.93333c0,12.66573 10.2676,22.93333 22.93333,22.93333c12.66573,0 22.93333,-10.2676 22.93333,-22.93333c0,-12.66573 -10.2676,-22.93333 -22.93333,-22.93333z"></path></g></g></svg>