<svg xmlns="http://www.w3.org/2000/svg" x="0px" y="0px"
width="20" height="20"
viewBox="0 0 226 226"
style=" fill:#000000;"><g fill="none" fill-rule="nonzero" stroke="none" stroke-width="1" stroke-linecap="butt" stroke-linejoin="miter" stroke-miterlimit="10" stroke-dasharray="" stroke-dashoffset="0" font-family="none" font-weight="none" font-size="none" text-anchor="none" style="mix-blend-mode: normal"><path d="M0,226v-226h226v226z" fill="none"></path><g fill="#ffffff"><path d="M39.64887,65.91667h0.24483v0c13.13625,0 21.31463,-9.41667 21.31463,-21.1875c-0.24483,-12.02979 -8.17838,-21.1875 -21.06508,-21.1875c-12.88671,0 -21.30992,9.15771 -21.30992,21.1875c0,11.77083 8.17367,21.1875 20.81554,21.1875zM18.83333,80.04167h42.375v122.41667h-42.375zM207.16667,124.77083c0,-24.70463 -20.02454,-44.72917 -44.72917,-44.72917c-14.37454,0 -27.12942,6.80825 -35.3125,17.3455v-17.3455h-42.375v122.41667h42.375v-70.625v0c0,-10.40071 8.43263,-18.83333 18.83333,-18.83333c10.40071,0 18.83333,8.43262 18.83333,18.83333v70.625h42.375c0,0 0,-70.83687 0,-77.6875z"></path></g></g></svg>