<svg xmlns="http://www.w3.org/2000/svg" x="0px" y="0px"
width="20" height="20"
viewBox="0 0 226 226"
style=" fill:#000000;"><g fill="none" fill-rule="nonzero" stroke="none" stroke-width="1" stroke-linecap="butt" stroke-linejoin="miter" stroke-miterlimit="10" stroke-dasharray="" stroke-dashoffset="0" font-family="none" font-weight="none" font-size="none" text-anchor="none" style="mix-blend-mode: normal"><path d="M0,226v-226h226v226z" fill="none"></path><g fill="#ffffff"><path d="M210.93333,52.25873c-7.2094,3.20167 -14.95367,5.3562 -23.08213,6.328c8.30173,-4.972 14.6674,-12.84433 17.66567,-22.23087c-7.75933,4.60287 -16.3624,7.94767 -25.52293,9.75567c-7.32993,-7.81207 -17.77113,-12.69367 -29.32727,-12.69367c-22.1932,0 -40.1828,17.99713 -40.1828,40.1828c0,3.14893 0.3616,6.22253 1.0396,9.153c-33.39527,-1.6724 -63.00127,-17.6732 -82.829,-41.9908c-3.45027,5.93627 -5.43153,12.8368 -5.43153,20.21193c0,13.93667 7.08887,26.2386 17.86907,33.44047c-6.58413,-0.21093 -12.78407,-2.01893 -18.20053,-5.02473c0,0.17327 0,0.33147 0,0.50473c0,19.47367 13.84627,35.71553 32.23513,39.39933c-3.3674,0.91907 -6.92313,1.40873 -10.59187,1.40873c-2.58393,0 -5.1076,-0.25613 -7.55593,-0.71567c5.11513,15.96313 19.9558,27.58707 37.5386,27.911c-13.74833,10.7802 -31.075,17.20613 -49.90833,17.20613c-3.23933,0 -6.441,-0.18833 -9.58993,-0.565c17.7862,11.39793 38.90213,18.04987 61.60007,18.04987c73.91707,0 114.32587,-61.23093 114.32587,-114.3334c0,-1.7402 -0.03767,-3.47287 -0.113,-5.198c7.85727,-5.6726 14.67493,-12.7464 20.06127,-20.79953z"></path></g></g></svg>