<svg xmlns="http://www.w3.org/2000/svg" x="0px" y="0px"
width="30" height="30"
viewBox="0 0 226 226"
style=" fill:#000000;"><g fill="none" fill-rule="nonzero" stroke="none" stroke-width="1" stroke-linecap="butt" stroke-linejoin="miter" stroke-miterlimit="10" stroke-dasharray="" stroke-dashoffset="0" font-family="none" font-weight="none" font-size="none" text-anchor="none" style="mix-blend-mode: normal"><path d="M0,226v-226h226v226z" fill="none"></path><g fill="#ffffff"><path d="M67.8,188.33333h-37.66667v-113h37.66667zM48.9742,60.26667c-10.4186,0 -18.84087,-8.44487 -18.84087,-18.84087c0,-10.396 8.43733,-18.8258 18.84087,-18.8258c10.38093,0 18.8258,8.44487 18.8258,18.8258c0,10.396 -8.44487,18.84087 -18.8258,18.84087zM203.4,188.33333h-36.21273v-54.99333c0,-13.11553 -0.2486,-29.98267 -18.8258,-29.98267c-18.85593,0 -21.75627,14.2832 -21.75627,29.03347v55.94253h-36.2052v-113.08287h34.7588v15.45087h0.48967c4.8364,-8.88933 16.6562,-18.2608 34.2842,-18.2608c36.68733,0 43.46733,23.42113 43.46733,53.87087z"></path></g></g></svg>