<svg width="25" height="20" viewBox="0 0 25 20" fill="none" xmlns="http://www.w3.org/2000/svg">
<path d="M24.5252 4.81082C24.5698 3.78244 24.219 2.77775 23.5499 2.01719C22.8809 1.25664 21.9481 0.802342 20.9564 0.753989C18.2851 0.624185 15.5608 0.571167 12.7784 0.571167H11.9108C9.1337 0.571167 6.40417 0.621443 3.73282 0.753989C2.74085 0.805615 1.80896 1.26246 1.14098 2.02459C0.473005 2.78672 0.123309 3.79212 0.16838 4.82087C0.0484782 6.6043 -0.00530135 8.38042 -1.15567e-05 10.1611C0.00527824 11.9418 0.0484782 13.7207 0.163972 15.5059C0.116952 16.5362 0.465529 17.5439 1.1334 18.3083C1.80128 19.0727 2.73405 19.5317 3.72753 19.5847C6.53377 19.72 9.41318 19.7794 12.3402 19.7748C15.2719 19.7846 18.1428 19.7212 20.9529 19.5847C21.9464 19.5326 22.8796 19.0746 23.5483 18.3109C24.2169 17.5472 24.5666 16.5399 24.5208 15.5096C24.6363 13.7243 24.6892 11.9445 24.6848 10.1602C24.6942 8.37707 24.641 6.59394 24.5252 4.81082ZM9.97831 15.0653V5.24136L16.9705 10.1511L9.97831 15.0653Z" fill="white"/>
</svg>
