<svg width="25" height="20" viewBox="0 0 25 20" fill="none" xmlns="http://www.w3.org/2000/svg">
<path d="M24.6849 2.84541C23.7603 3.23596 22.7804 3.49357 21.7769 3.60987C22.8352 3.00438 23.627 2.05175 24.0048 0.92954C23.0115 1.49659 21.9234 1.89567 20.7882 2.10926C20.0948 1.39776 19.1931 0.90254 18.2007 0.688222C17.2084 0.473904 16.1715 0.550437 15.2254 0.907836C14.2792 1.26523 13.4677 1.8869 12.8968 2.69173C12.3259 3.49657 12.022 4.44719 12.0248 5.41957C12.0229 5.79167 12.0668 6.16269 12.1556 6.52497C10.1396 6.42949 8.16739 5.92865 6.36766 5.05515C4.56793 4.18165 2.98121 2.95513 1.71111 1.4557C1.06312 2.52318 0.865283 3.78662 1.1579 4.98866C1.45053 6.19069 2.21159 7.24088 3.28606 7.9253C2.47856 7.90622 1.68823 7.69843 0.98412 7.3201V7.38027C0.983587 8.49958 1.38853 9.58454 2.13015 10.4508C2.87177 11.3171 3.90431 11.9112 5.05233 12.1322C4.61739 12.2449 4.16872 12.3021 3.71806 12.3021C3.39851 12.3027 3.07971 12.2726 2.76643 12.2124C3.09005 13.1751 3.72045 14.017 4.56941 14.6202C5.41838 15.2235 6.44344 15.5581 7.50115 15.577C5.70654 16.9253 3.48896 17.6563 1.20629 17.6521C0.802421 17.6517 0.39893 17.6284 -0.0020752 17.5825C2.30451 19.0171 4.99856 19.778 7.75048 19.7721C9.64878 19.7848 11.5308 19.4367 13.2871 18.7481C15.0434 18.0595 16.639 17.0441 17.9811 15.7609C19.3232 14.4776 20.385 12.9522 21.1049 11.2733C21.8248 9.59443 22.1883 7.7955 22.1743 5.98112C22.1743 5.77113 22.1743 5.56114 22.1583 5.35586C23.1498 4.66909 24.0053 3.81899 24.6849 2.84541Z" fill="white"/>
</svg>
